<svg xmlns="http://www.w3.org/2000/svg" viewBox="0 0 800 1067">
  <path style="fill:#ffffff" d="m286.48 274.99 56.55-27.44L401 223.46l9.55 3.81 59.88 34.12 34.84 21.24 2.62 9.06 2.86 16.23 3.58 22.42 3.58 28.4 1.67 12.88 1.19 2.15 3.58 2.14 67.05-8.82 22.66-1.91 14.32 10.73 78.26 74.21 1.19 3.81-5.25 43.9-3.34 26.25-7.16 48.43-.95 4.54-2.15 5.48-12.17 29.59-18.37 40.32-5.73 12.41-3.81 4.53-10.98 9.07-23.14 15.03-21.47 14.55-14.08 9.54L533.66 740l-50.58 25.05-6.68 2.63-67.28-9.78-60.37-13.37-42.23-12.64-37.93-15.03-33.88-56.31-31.74-58.69-2.62-9.07-3.1-31.01-4.3-37.22-2.62-50.59-1.67-56.54v-5.01l36.74-74.92 61.08-62.51z"/>
</svg>
